<svg width="48" height="48" viewBox="0 0 48 48" fill="none" xmlns="http://www.w3.org/2000/svg">
<path d="M0 43.3999H48C47.619 45.7426 46.0897 47.5999 43.7333 47.5999H4.26667C1.91025 47.5999 0.157385 45.755 0 43.3999Z" fill="#BB133E"/>
<rect y="39.3999" width="48" height="4" fill="white"/>
<rect y="35.2002" width="48" height="4.2" fill="#BB133E"/>
<rect y="12.7998" width="48" height="22.4" fill="white"/>
<path d="M11.5489 15.588C13.0361 15.588 13.9825 15.7604 14.7261 16.3875C15.3514 16.9204 15.6894 17.6258 15.6894 18.4096C15.6894 19.3658 15.1317 20.4004 13.8473 20.8394C15.5373 21.2626 16.264 22.2658 16.264 23.5826C16.264 24.5231 15.8753 25.1815 15.4359 25.6675C14.5064 26.7177 13.0699 26.8118 11.4813 26.8118H7.7971C6.5465 26.8118 6.3606 26.6707 6.0395 26.3729C5.7015 26.0594 5.6001 25.8242 5.6001 24.7583V17.6258C5.6001 16.5913 5.7015 16.3561 6.0226 16.0426C6.3606 15.7134 6.5803 15.588 7.814 15.588H11.5489ZM10.4335 20.0242C10.8053 20.0242 11.532 19.9929 11.8193 19.9145C12.2418 19.7891 12.6643 19.4442 12.6643 18.8172C12.6643 17.7983 11.7348 17.6572 10.5011 17.6572H8.7266V20.0242H10.4335ZM10.9912 24.6642C12.0897 24.6642 13.1375 24.4918 13.1375 23.3475C13.1375 22.2188 12.0897 22.015 10.8729 22.015H8.7266V24.6642H10.9912Z" fill="#002664"/>
<path d="M20.6836 18.3156C21.0047 17.5318 21.3427 16.7167 21.6807 16.215C22.0356 15.6977 22.8299 15.3999 23.489 15.3999C24.165 15.3999 24.8241 15.6664 25.1959 16.0896C25.5846 16.5442 25.9226 17.4377 26.2606 18.2215L28.7449 24.1469C29.1167 25.0561 29.2181 25.3383 29.2181 25.6988C29.2181 26.2631 28.6266 26.9999 27.6971 26.9999C26.4634 26.9999 26.2944 26.0907 25.7367 24.6172H21.1906C20.6329 26.1064 20.4977 26.9999 19.264 26.9999C18.4697 26.9999 17.8106 26.3572 17.8106 25.7302C17.8106 25.2913 17.9289 25.0091 18.2669 24.194L20.6836 18.3156ZM21.968 22.4696H24.9593L23.4552 18.3313L21.968 22.4696Z" fill="#002664"/>
<path d="M33.8656 18.3156C34.1867 17.5318 34.5247 16.7167 34.8627 16.215C35.2176 15.6977 36.0119 15.3999 36.671 15.3999C37.347 15.3999 38.0061 15.6664 38.3779 16.0896C38.7666 16.5442 39.1046 17.4377 39.4426 18.2215L41.9269 24.1469C42.2987 25.0561 42.4001 25.3383 42.4001 25.6988C42.4001 26.2631 41.8086 26.9999 40.8791 26.9999C39.6454 26.9999 39.4764 26.0907 38.9187 24.6172H34.3726C33.8149 26.1064 33.6797 26.9999 32.446 26.9999C31.6517 26.9999 30.9926 26.3572 30.9926 25.7302C30.9926 25.2913 31.1109 25.0091 31.4489 24.194L33.8656 18.3156ZM35.15 22.4696H38.1413L36.6372 18.3313L35.15 22.4696Z" fill="#002664"/>
<path d="M5.6001 30.8146C5.6001 29.7103 6.33919 29 7.48888 29C8.74807 29 9.16415 29.7346 9.16415 30.0995C9.16415 30.2795 8.99443 30.4935 8.72617 30.4935C8.43601 30.4935 8.35389 30.3135 8.26082 30.1432C8.1568 29.9535 7.93233 29.7054 7.49436 29.7054C6.93046 29.7054 6.61292 30.0897 6.61292 30.8292C6.61292 31.2232 6.69504 31.52 6.88666 31.7C7.029 31.8362 7.26989 31.9092 7.48341 31.9092C7.91591 31.9092 8.10753 31.7 8.22249 31.4811C8.33746 31.2622 8.38674 31.0335 8.7207 31.0335C8.93969 31.0335 9.16415 31.1843 9.16415 31.4227C9.16415 31.6416 9.05465 31.9676 8.6988 32.2497C8.44696 32.4492 8.15132 32.6 7.51625 32.6C6.81001 32.6 6.46511 32.4297 6.15852 32.167C5.76434 31.8265 5.6001 31.3254 5.6001 30.8146Z" fill="#002664"/>
<path d="M10.0018 30.7854C10.0018 29.7784 10.6423 29 11.9453 29C13.2921 29 13.9326 29.7346 13.9326 30.7951C13.9326 31.8362 13.303 32.6 11.9727 32.6C10.6533 32.6 10.0018 31.8605 10.0018 30.7854ZM11.9617 29.7054C11.2062 29.7054 11.0146 30.2843 11.0146 30.7854C11.0146 31.6611 11.5457 31.8946 11.9617 31.8946C12.5749 31.8946 12.9198 31.5005 12.9198 30.7805C12.9198 30.1335 12.6297 29.7054 11.9617 29.7054Z" fill="#002664"/>
<path d="M14.862 29.6908C14.862 29.4914 14.873 29.3503 14.9387 29.2676C15.0482 29.1314 15.1467 29.0584 15.4533 29.0584H15.6285C16.2471 29.0584 16.2745 29.1557 16.4278 29.6616L16.915 31.3059L17.3859 29.7005C17.5611 29.107 17.583 29.0584 18.2673 29.0584C18.6341 29.0584 18.7381 29.1119 18.8367 29.2141C18.9352 29.3162 18.9571 29.4086 18.9571 29.6957V32.0551C18.9571 32.2497 18.9516 32.4005 18.8257 32.4978C18.7546 32.5514 18.6615 32.6 18.5301 32.6C18.3768 32.6 18.2892 32.5465 18.2126 32.4832C18.1031 32.3957 18.0976 32.2303 18.0976 32.0503V29.8416L17.4954 31.9481C17.4516 32.0941 17.4023 32.313 17.3202 32.4151C17.2326 32.5222 17.1012 32.6 16.9096 32.6C16.7946 32.6 16.6085 32.5465 16.5263 32.4541C16.4278 32.3422 16.3676 32.0941 16.3238 31.9481L15.7216 29.8416V32.0941C15.7216 32.3032 15.7051 32.4054 15.5847 32.5027C15.519 32.5562 15.4204 32.6 15.2945 32.6C15.1686 32.6 15.0536 32.5514 14.9825 32.4881C14.862 32.3811 14.862 32.2351 14.862 32.0503V29.6908Z" fill="#002664"/>
<path d="M21.7479 29.0584C22.0217 29.0584 22.4651 29.0535 22.7936 29.2578C23.0455 29.4135 23.2371 29.6665 23.2371 30.1286C23.2371 30.5081 23.0838 30.8243 22.7717 31.0238C22.5473 31.1649 22.2516 31.2378 21.7698 31.2378H21.0746V31.9578C21.0746 32.0892 21.0746 32.2984 20.9924 32.4054C20.9103 32.5124 20.7515 32.6 20.5764 32.6C20.4066 32.6 20.226 32.5124 20.1548 32.4103C20.0617 32.2692 20.0727 32.0892 20.0727 31.9578V29.6908C20.0727 29.4622 20.0836 29.3308 20.1822 29.2286C20.2971 29.1119 20.3355 29.0584 20.7899 29.0584H21.7479ZM21.4961 30.5908C21.6713 30.5908 21.8136 30.5811 21.9286 30.547C22.1312 30.4838 22.2352 30.3135 22.2352 30.1481C22.2352 30.007 22.175 29.9097 22.0929 29.8319C21.9888 29.7297 21.8191 29.7054 21.4906 29.7054H21.0746V30.5908H21.4961Z" fill="#002664"/>
<path d="M24.2074 29.6422C24.2074 29.5108 24.2074 29.3892 24.2403 29.2919C24.3005 29.107 24.5195 29 24.7056 29C24.9356 29 25.0724 29.107 25.1491 29.2286C25.2148 29.3308 25.2093 29.6081 25.2093 29.6422V31.8216H26.6273C26.7532 31.8216 26.9667 31.8216 27.0543 31.8946C27.12 31.9481 27.2076 32.0357 27.2076 32.1768C27.2076 32.2935 27.1364 32.4054 27.0488 32.4686C26.9557 32.5368 26.7751 32.5416 26.6218 32.5416H24.9191C24.525 32.5416 24.4812 32.5027 24.3717 32.4249C24.2458 32.3324 24.2074 32.2351 24.2074 31.9043V29.6422Z" fill="#002664"/>
<path d="M29.0294 31.9578C29.0294 32.1476 29.0239 32.3276 28.9308 32.4249C28.8378 32.5222 28.7283 32.6 28.5312 32.6C28.3615 32.6 28.252 32.5368 28.1699 32.4735C28.0275 32.3616 28.0275 32.1184 28.0275 31.9578V29.6422C28.0275 29.4914 28.033 29.3649 28.0713 29.2627C28.1206 29.1362 28.3067 29 28.5257 29C28.7611 29 28.9308 29.1265 28.9856 29.2676C29.0294 29.3843 29.0294 29.613 29.0294 29.6422V31.9578Z" fill="#002664"/>
<path d="M30.9018 29.9049C31.0058 29.6616 31.1153 29.4086 31.2248 29.253C31.3398 29.0924 31.5971 29 31.8106 29C32.0296 29 32.2431 29.0827 32.3635 29.2141C32.4895 29.3551 32.599 29.6324 32.7085 29.8757L33.5132 31.7146C33.6337 31.9968 33.6665 32.0843 33.6665 32.1962C33.6665 32.3714 33.4749 32.6 33.1738 32.6C32.7741 32.6 32.7194 32.3178 32.5387 31.8605H31.066C30.8854 32.3227 30.8416 32.6 30.4419 32.6C30.1846 32.6 29.9711 32.4005 29.9711 32.2059C29.9711 32.0697 30.0094 31.9822 30.1189 31.7292L30.9018 29.9049ZM31.3179 31.1941H32.2869L31.7996 29.9097L31.3179 31.1941Z" fill="#002664"/>
<path d="M35.5608 32.0065C35.5608 32.1622 35.5663 32.347 35.4513 32.4589C35.3856 32.5222 35.2761 32.6 35.0954 32.6C34.9586 32.6 34.8053 32.5416 34.7286 32.4492C34.652 32.3616 34.6246 32.2449 34.6246 31.9773V29.7541C34.6246 29.4914 34.6356 29.3843 34.6958 29.2724C34.7779 29.1216 34.9969 29 35.2214 29C35.5553 29 35.6539 29.1703 35.9933 29.6373L37.1156 31.1843V29.6032C37.1156 29.5303 37.1047 29.3551 37.1758 29.2141C37.2361 29.0973 37.4058 29 37.581 29C37.7781 29 37.9532 29.1168 37.9916 29.1995C38.0408 29.3065 38.0518 29.4427 38.0518 29.6032V31.8314C38.0518 32.0989 38.0408 32.3032 37.9095 32.42C37.8 32.5173 37.674 32.6 37.4441 32.6C37.1211 32.6 37.0225 32.4589 36.705 32.0259L35.5608 30.4497V32.0065Z" fill="#002664"/>
<path d="M41.8143 29.0584C41.9457 29.0584 42.1647 29.0535 42.2632 29.1508C42.3289 29.2189 42.4001 29.287 42.4001 29.4184C42.4001 29.5546 42.3344 29.6227 42.2687 29.6908C42.1756 29.7832 41.9785 29.7832 41.8143 29.7832H41.13V31.9578C41.13 32.1573 41.1245 32.3276 41.0314 32.4249C40.9383 32.527 40.8015 32.6 40.6318 32.6C40.462 32.6 40.3416 32.5319 40.2485 32.4492C40.1336 32.347 40.1281 32.1476 40.1281 31.9335V29.7832H39.4437C39.2029 29.7832 39.0988 29.7735 38.9948 29.6859C38.9182 29.6227 38.8634 29.54 38.8634 29.4232C38.8634 29.2919 38.951 29.1703 39.0496 29.1119C39.1153 29.073 39.1974 29.0584 39.4054 29.0584H41.8143Z" fill="#002664"/>
<path d="M0 4.8C0 2.14903 2.14903 0 4.8 0H43.2C45.851 0 48 2.14903 48 4.8V12.8H0V4.8Z" fill="#002664"/>
<path d="M8.8754 3.99029C8.93766 3.81118 9.19096 3.81118 9.25322 3.99029L9.77098 5.47981C9.79844 5.55883 9.87218 5.6124 9.95582 5.61411L11.5324 5.64624C11.722 5.6501 11.8003 5.89101 11.6492 6.00557L10.3926 6.95828C10.3259 7.00881 10.2977 7.0955 10.322 7.17557L10.7786 8.68495C10.8335 8.86645 10.6286 9.01534 10.4729 8.90703L9.17854 8.00631C9.10988 7.95853 9.01874 7.95853 8.95007 8.00631L7.65568 8.90703C7.50003 9.01534 7.2951 8.86645 7.35001 8.68495L7.80666 7.17556C7.83088 7.0955 7.80271 7.00881 7.73605 6.95828L6.47943 6.00557C6.32832 5.89101 6.4066 5.6501 6.59618 5.64624L8.1728 5.61411C8.25643 5.6124 8.33017 5.55883 8.35764 5.47981L8.8754 3.99029Z" fill="white"/>
<path d="M23.8114 3.99029C23.8737 3.81118 24.127 3.81118 24.1893 3.99029L24.707 5.47981C24.7345 5.55883 24.8082 5.6124 24.8919 5.61411L26.4685 5.64624C26.6581 5.6501 26.7363 5.89101 26.5852 6.00557L25.3286 6.95828C25.2619 7.00881 25.2338 7.0955 25.258 7.17557L25.7146 8.68495C25.7696 8.86645 25.5646 9.01534 25.409 8.90703L24.1146 8.00631C24.0459 7.95853 23.9548 7.95853 23.8861 8.00631L22.5917 8.90703C22.4361 9.01534 22.2311 8.86645 22.286 8.68495L22.7427 7.17556C22.7669 7.0955 22.7387 7.00881 22.6721 6.95828L21.4155 6.00557C21.2644 5.89101 21.3426 5.6501 21.5322 5.64624L23.1088 5.61411C23.1925 5.6124 23.2662 5.55883 23.2937 5.47981L23.8114 3.99029Z" fill="white"/>
<path d="M38.747 3.99029C38.8092 3.81118 39.0625 3.81118 39.1248 3.99029L39.6426 5.47981C39.67 5.55883 39.7438 5.6124 39.8274 5.61411L41.404 5.64624C41.5936 5.6501 41.6719 5.89101 41.5208 6.00557L40.2641 6.95828C40.1975 7.00881 40.1693 7.0955 40.1935 7.17557L40.6502 8.68495C40.7051 8.86645 40.5002 9.01534 40.3445 8.90703L39.0501 8.00631C38.9815 7.95853 38.8903 7.95853 38.8217 8.00631L37.5273 8.90703C37.3716 9.01534 37.1667 8.86645 37.2216 8.68495L37.6782 7.17556C37.7025 7.0955 37.6743 7.00881 37.6076 6.95828L36.351 6.00557C36.1999 5.89101 36.2782 5.6501 36.4678 5.64624L38.0444 5.61411C38.128 5.6124 38.2018 5.55883 38.2292 5.47981L38.747 3.99029Z" fill="white"/>
<path fill-rule="evenodd" clip-rule="evenodd" d="M43.2 0.48H4.8C2.41413 0.48 0.48 2.41413 0.48 4.8V43.2C0.48 45.5859 2.41413 47.52 4.8 47.52H43.2C45.5859 47.52 47.52 45.5859 47.52 43.2V4.8C47.52 2.41413 45.5859 0.48 43.2 0.48ZM4.8 0C2.14903 0 0 2.14903 0 4.8V43.2C0 45.851 2.14903 48 4.8 48H43.2C45.851 48 48 45.851 48 43.2V4.8C48 2.14903 45.851 0 43.2 0H4.8Z" fill="#D9D9D9"/>
</svg>
